<svg version="1.1" xmlns="http://www.w3.org/2000/svg" xmlns:xlink="http://www.w3.org/1999/xlink" width="135.5501" height="105.26034" viewBox="0,0,135.5501,105.26034"><g transform="translate(-172.22495,-127.36983)"><g data-paper-data="{&quot;isPaintingLayer&quot;:true}" fill-rule="nonzero" stroke-width="1" stroke-miterlimit="10" stroke-dasharray="" stroke-dashoffset="0" style="mix-blend-mode: normal"><path d="M232.9531,216.13679c-5.29575,2.92555 -10.91039,5.43844 -16.87963,6.40442c-5.97008,0.96587 -12.36069,0.27253 -17.53835,-2.85799c-3.98102,-2.40707 -7.01927,-6.07756 -10.62312,-9.02074c-3.61093,-2.95037 -7.82397,-5.19698 -10.96552,-8.64425c-3.75427,-4.12079 -5.69514,-10.08723 -4.23361,-15.47197c1.46035,-5.38485 6.69259,-9.74139 12.25151,-9.41515c4.66179,0.27358 8.62283,3.49753 11.7027,7.0157c3.0805,3.51858 5.69747,7.53022 9.44532,10.32159c5.38439,4.00965 12.88581,4.96791 19.10226,2.43865z" fill="#e67014" stroke="none" stroke-linecap="butt" stroke-linejoin="miter"/><path d="M227.20892,201.59326c-4.24436,1.44797 -8.82978,1.87868 -13.26777,1.24905c-1.01632,-0.04358 -2.19818,0.00239 -3.24083,-0.44509c-0.51638,-0.22177 -1.0028,-0.45177 -1.34824,-0.61753c-1.25063,-0.60274 -2.50127,-1.20598 -3.75253,-1.80819c-0.29424,-0.14179 -0.62376,-0.32916 -0.68129,-0.65059c-0.05473,-0.30863 0.18842,-0.60992 0.48215,-0.71972c0.29372,-0.10822 0.61981,-0.0685 0.92643,-0.0048c0.306,0.06328 0.61501,0.1491 0.92694,0.12511c-0.41701,-0.35354 -0.85464,-0.68082 -1.23825,-1.06273c-0.13391,-0.13366 -0.2649,-0.27784 -0.33607,-0.45415c-0.07221,-0.17536 -0.07637,-0.38952 0.0335,-0.54424c0.18333,-0.26022 0.57164,-0.24346 0.8818,-0.16869c0.55623,0.13512 1.08957,0.36753 1.56839,0.68415c-0.3883,-0.36939 -0.76183,-0.81595 -1.06034,-1.30648c-0.15451,-0.2516 -0.28374,-0.59315 -0.09978,-0.82367c0.11748,-0.14711 0.33129,-0.18829 0.51576,-0.15139c0.18447,0.03837 0.34825,0.14139 0.50629,0.24241c0.92289,0.58886 1.84516,1.17815 2.93483,1.99607c5.20876,-0.23864 10.40245,-0.83512 15.52983,-1.78286" fill="#ea8d22" stroke="none" stroke-linecap="butt" stroke-linejoin="miter"/><path d="M256.01569,184.46876c-0.50391,6.98171 -1.99613,14.1171 -6.00763,19.8483c-4.4227,6.31809 -11.57172,10.34652 -19.0387,12.23416c-9.40579,2.3784 -19.75579,1.52365 -28.23472,-3.19664c-8.47956,-4.72018 -14.82794,-13.47266 -15.81471,-23.14263c3.86459,4.90568 9.54687,8.60682 15.82772,10.14571c6.28075,1.53848 13.13656,0.84514 18.83986,-2.20679c5.70413,-3.05056 10.15314,-8.49568 11.70937,-14.78405z" fill="#ffa429" stroke="none" stroke-linecap="butt" stroke-linejoin="miter"/><path d="M194.39565,202.32485c6.32778,1.62231 12.83358,2.97249 19.34875,2.50196c6.51444,-0.46896 13.11743,-2.96132 17.37031,-7.92829c1.69502,-1.97929 2.98644,-4.30346 4.87166,-6.10112c1.88438,-1.79715 4.65846,-3.01981 7.09543,-2.10711c1.92454,0.72107 3.21743,2.66439 3.5769,4.69288c0.35813,2.02766 -0.09509,4.12277 -0.83049,6.04649c-2.36435,6.17004 -7.67352,11.00334 -13.84325,13.33847c-6.17119,2.33481 -13.10639,2.28299 -19.44187,0.44708c-6.33652,-1.83697 -12.09454,-5.38527 -18.14743,-10.89035" fill="#ffef6a" stroke="none" stroke-linecap="butt" stroke-linejoin="miter"/><path d="M235.16765,185.86954c-0.93274,2.05736 -1.5515,4.25679 -1.82661,6.49806c-0.08604,0.70056 -0.1057,1.50076 0.38924,2.00266c0.4172,0.42168 1.16896,0.61019 1.24026,1.19969c0.05301,0.43969 -0.37272,0.82113 -0.81134,0.88611c-0.43751,0.06494 -0.87381,-0.09786 -1.28615,-0.25729c-0.17765,1.07629 -0.09282,2.14241 -0.00697,3.20879c0.02606,0.32918 0.02589,0.72129 -0.24335,0.91299c-0.22854,0.16381 -0.56245,0.09145 -0.77514,-0.09209c-0.21216,-0.18347 -0.33063,-0.45166 -0.43387,-0.71262c-0.34407,-0.86273 -0.61181,-1.75492 -0.79945,-2.66472c-0.2493,0.91389 -0.28519,1.89275 -0.38986,2.86519c-0.03519,0.33458 -0.11376,0.72031 -0.41464,0.87248c-0.26505,0.1337 -0.60302,0.00963 -0.80098,-0.21139c-0.19969,-0.22174 -0.28849,-0.51806 -0.36564,-0.80587c-0.25449,-0.96018 -0.42498,-1.94316 -0.50918,-2.93334c-0.4696,0.69152 -0.73071,1.50078 -1.05851,2.28233c-0.14004,0.3357 -0.35364,0.71212 -0.71548,0.75073c-0.30032,0.03088 -0.57705,-0.2098 -0.68662,-0.49011c-0.11069,-0.28182 -0.0946,-0.5966 -0.07218,-0.8981c0.37245,-5.25154 2.71031,-13.25492 4.8658,-18.05797" fill="#ffa429" stroke="none" stroke-linecap="butt" stroke-linejoin="miter"/><path d="M235.16765,185.86954c-0.93274,2.05736 -1.5515,4.25679 -1.82661,6.49806c-0.08604,0.70056 -0.1057,1.50076 0.38924,2.00266c0.4172,0.42168 1.16896,0.61019 1.24026,1.19969c0.05301,0.43969 -0.37272,0.82113 -0.81134,0.88611c-0.43751,0.06494 -0.87381,-0.09786 -1.28615,-0.25729c-0.17765,1.07629 -0.09282,2.14241 -0.00697,3.20879c0.02606,0.32918 0.02589,0.72129 -0.24335,0.91299c-0.22854,0.16381 -0.56245,0.09145 -0.77514,-0.09209c-0.21216,-0.18347 -0.33063,-0.45166 -0.43387,-0.71262c-0.34407,-0.86273 -0.61181,-1.75492 -0.79945,-2.66472c-0.2493,0.91389 -0.28519,1.89275 -0.38986,2.86519c-0.03519,0.33458 -0.11376,0.72031 -0.41464,0.87248c-0.26505,0.1337 -0.60302,0.00963 -0.80098,-0.21139c-0.19969,-0.22174 -0.28849,-0.51806 -0.36564,-0.80587c-0.25449,-0.96018 -0.42498,-1.94316 -0.50918,-2.93334c-0.4696,0.69152 -0.73071,1.50078 -1.05851,2.28233c-0.14004,0.3357 -0.35364,0.71212 -0.71548,0.75073c-0.30032,0.03088 -0.57705,-0.2098 -0.68662,-0.49011c-0.11069,-0.28182 -0.0946,-0.5966 -0.07218,-0.8981c0.37245,-5.25154 2.71031,-13.25492 4.8658,-18.05797" fill="none" stroke="#2c2354" stroke-linecap="round" stroke-linejoin="round"/><path d="M254.08978,181.73255c1.66485,2.00941 2.94628,4.40022 3.32012,6.98359c0.3754,2.58431 -0.2314,5.36848 -1.93641,7.34339c-2.05835,2.3836 -5.3101,3.27138 -8.36105,4.03894c-0.16876,0.21895 -2.66224,1.86898 -3.92161,2.20825c-0.27104,0.07424 -0.52876,0.21802 -0.80947,0.20455c-0.2802,-0.01387 -0.57331,-0.18496 -0.63636,-0.45853c-0.07459,-0.32957 0.19271,-0.63004 0.44564,-0.85379c0.58756,-0.5212 1.21963,-0.99412 1.68679,-1.61406c-0.89407,0.22228 -1.80831,0.36461 -2.72673,0.42684c-0.27686,0.01826 -0.56279,0.02784 -0.81718,-0.08194c-0.25387,-0.10875 -0.46425,-0.36887 -0.42596,-0.6434c0.044,-0.30954 0.35958,-0.49451 0.64259,-0.62577c0.82238,-0.38035 1.67057,-0.70377 2.39879,-1.19588c-0.85443,0.10593 -1.71842,0.13606 -2.57763,0.09061c-0.26146,-0.01491 -0.53168,-0.03742 -0.75642,-0.17057c-0.2237,-0.13271 -0.3882,-0.40588 -0.31318,-0.65444c0.08854,-0.29476 0.43324,-0.41205 0.72915,-0.48774c0.96253,-0.24251 1.92403,-0.48439 2.81529,-0.9616c-0.26303,-0.31621 -0.53646,-0.65162 -0.61053,-1.05741c-0.0742,-0.40536 0.13379,-0.89361 0.53593,-0.97744c0.53834,-0.11301 0.92903,0.49304 1.42388,0.73493c0.58807,0.28652 1.30006,0.20561 2.04306,0.05849c1.87335,-0.37231 2.86875,-2.61976 3.15135,-4.51282c0.28299,-1.89244 -1.58931,-7.64803 -1.58931,-7.64803" fill="#ffa429" stroke="none" stroke-linecap="butt" stroke-linejoin="miter"/><path d="M254.08978,181.73255c1.66485,2.00941 2.94628,4.40022 3.32012,6.98359c0.3754,2.58431 -0.2314,5.36848 -1.93641,7.34339c-2.05835,2.3836 -5.3101,3.27138 -8.36105,4.03894c-0.16876,0.21895 -2.66224,1.86898 -3.92161,2.20825c-0.27104,0.07424 -0.52876,0.21802 -0.80947,0.20455c-0.2802,-0.01387 -0.57331,-0.18496 -0.63636,-0.45853c-0.07459,-0.32957 0.19271,-0.63004 0.44564,-0.85379c0.58756,-0.5212 1.21963,-0.99412 1.68679,-1.61406c-0.89407,0.22228 -1.80831,0.36461 -2.72673,0.42684c-0.27686,0.01826 -0.56279,0.02784 -0.81718,-0.08194c-0.25387,-0.10875 -0.46425,-0.36887 -0.42596,-0.6434c0.044,-0.30954 0.35958,-0.49451 0.64259,-0.62577c0.82238,-0.38035 1.67057,-0.70377 2.39879,-1.19588c-0.85443,0.10593 -1.71842,0.13606 -2.57763,0.09061c-0.26146,-0.01491 -0.53168,-0.03742 -0.75642,-0.17057c-0.2237,-0.13271 -0.3882,-0.40588 -0.31318,-0.65444c0.08854,-0.29476 0.43324,-0.41205 0.72915,-0.48774c0.96253,-0.24251 1.92403,-0.48439 2.81529,-0.9616c-0.26303,-0.31621 -0.53646,-0.65162 -0.61053,-1.05741c-0.0742,-0.40536 0.13379,-0.89361 0.53593,-0.97744c0.53834,-0.11301 0.92903,0.49304 1.42388,0.73493c0.58807,0.28652 1.30006,0.20561 2.04306,0.05849c1.87335,-0.37231 2.86875,-2.61976 3.15135,-4.51282c0.28299,-1.89244 -0.18884,-3.83429 -0.98687,-5.57345" fill="none" stroke="#2c2354" stroke-linecap="round" stroke-linejoin="round"/><path d="M218.26573,176.22466c-2.52999,1.91506 -5.33029,3.51192 -8.36844,4.41795c-3.03888,0.90697 -6.32726,1.09953 -9.38476,0.25772c-1.81342,-0.49826 -3.60218,-1.41868 -4.65305,-2.983c-1.04982,-1.56329 -1.14555,-3.86453 0.15097,-5.23014c1.25063,-1.31681 3.28016,-1.41106 5.09358,-1.42107c2.00196,-0.01002 4.01504,-0.02524 5.98651,-0.37377c1.97198,-0.34844 3.91817,-1.04834 5.48011,-2.30218z" fill="#e67014" stroke="none" stroke-linecap="butt" stroke-linejoin="miter"/><path d="M217.90781,175.81116c-4.55317,3.38013 -10.37757,5.27319 -15.9687,4.34892c-1.63602,-0.27025 -3.31782,-0.82741 -4.41218,-2.07645c-1.09321,-1.24811 -1.35406,-3.33781 -0.19623,-4.52679c0.8048,-0.8247 2.0366,-1.02895 3.18215,-1.13968c2.19225,-0.21248 4.40396,-0.24668 6.5804,-0.58272c2.17759,-0.33677 4.35569,-0.9984 6.11397,-2.32866z" fill="#fd9100" stroke="none" stroke-linecap="butt" stroke-linejoin="miter"/><path d="M212.26476,166.32522c-3.12701,0.5433 -6.30146,0.94887 -9.47061,0.77288c-3.16977,-0.17662 -6.35421,-0.95951 -9.04463,-2.64822c-2.68981,-1.68766 -4.84866,-4.34131 -5.57178,-7.43878c-0.38653,-1.65399 -0.29258,-3.57593 0.87118,-4.81143c1.15721,-1.22735 3.07811,-1.43577 4.70934,-1.01424c1.63134,0.42142 3.07051,1.36383 4.5438,2.18145c4.08736,2.26631 8.92842,3.66017 13.45162,2.48641z" fill="#e67014" stroke="none" stroke-linecap="butt" stroke-linejoin="miter"/><path d="M211.75243,165.49114c-3.75846,0.7123 -7.68246,0.84649 -11.37912,-0.13835c-3.69676,-0.986 -7.15546,-3.16984 -9.22203,-6.39504c-0.62158,-0.96942 -1.12318,-2.06082 -1.14909,-3.21332c-0.02465,-1.15134 0.51108,-2.36754 1.53146,-2.89792c1.25886,-0.65632 2.78916,-0.12949 4.07559,0.47272c2.53832,1.18785 4.95906,2.65302 7.606,3.57238c2.64819,0.91948 5.63879,1.25206 8.21352,0.14368z" fill="#fd9100" stroke="none" stroke-linecap="butt" stroke-linejoin="miter"/><path d="M209.67234,155.14629c-6.5493,-2.61361 -12.64037,-7.06315 -15.78725,-13.38343c-0.98272,-1.97251 -1.6712,-4.18578 -1.35458,-6.36728c0.31724,-2.18093 1.84224,-4.28885 3.99215,-4.75386c2.18352,-0.47326 4.3635,0.77464 6.08754,2.19976c2.49419,2.05962 4.57314,4.57607 6.94342,6.7782c2.37152,2.20084 5.16184,4.13811 8.3545,4.64732z" fill="#e67014" stroke="none" stroke-linecap="butt" stroke-linejoin="miter"/><path d="M209.91269,154.12849c-2.93421,-1.62178 -5.88663,-3.25523 -8.48955,-5.36901c-2.60407,-2.11326 -4.86801,-4.75563 -6.04644,-7.89837c-0.6197,-1.65294 -0.92455,-3.49832 -0.39704,-5.18185c0.52866,-1.68347 2.0495,-3.13038 3.81007,-3.16038c1.56194,-0.02649 2.93358,0.99599 4.06789,2.07083c2.14533,2.03198 3.92577,4.42067 6.03292,6.49212c2.10652,2.07083 4.65888,3.86734 7.58143,4.28469z" fill="#fd9100" stroke="none" stroke-linecap="butt" stroke-linejoin="miter"/><path d="M284.09443,154.92536c4.60301,0.80291 9.31527,-0.97776 13.2066,-3.56843c1.40254,-0.93407 2.76138,-1.98949 4.35329,-2.54177c1.59294,-0.55205 3.523,-0.4991 4.77571,0.63047c1.26001,1.13675 1.50868,3.0445 1.25688,4.72446c-0.47133,3.14575 -2.40972,5.96527 -4.95572,7.86542c-2.54393,1.90067 -5.65491,2.93912 -8.80023,3.37169c-3.14429,0.43153 -6.34058,0.28495 -9.5015,-0.00354z" fill="#e67014" stroke="none" stroke-linecap="butt" stroke-linejoin="miter"/><path d="M284.51373,156.07681c2.65526,0.89643 5.61018,0.32247 8.17491,-0.80823c2.56476,-1.13081 4.85793,-2.7872 7.29366,-4.177c1.23293,-0.70407 2.7156,-1.35279 4.02346,-0.80114c1.06024,0.44676 1.69179,1.61521 1.75943,2.76594c0.06763,1.15031 -0.34438,2.27872 -0.88439,3.29526c-1.80208,3.38232 -5.07225,5.83818 -8.6785,7.1208c-3.6052,1.28032 -7.52567,1.46339 -11.33064,1.05835z" fill="#fd9100" stroke="none" stroke-linecap="butt" stroke-linejoin="miter"/><path d="M275.97425,141.90727c3.18424,-0.55676 5.94457,-2.53708 8.28249,-4.77383c2.33688,-2.23861 4.37619,-4.78566 6.83897,-6.88358c1.70427,-1.45041 3.86323,-2.73189 6.05445,-2.29276c2.15687,0.43325 3.71236,2.51704 4.063,4.69323c0.35063,2.17621 -0.30589,4.3995 -1.25687,6.38674c-3.05063,6.36792 -9.07387,10.90983 -15.58197,13.62291z" fill="#e67014" stroke="none" stroke-linecap="butt" stroke-linejoin="miter"/><path d="M277.42715,142.98563c2.91433,-0.4627 5.44058,-2.29686 7.51526,-4.4001c2.07572,-2.10378 3.81954,-4.51838 5.93272,-6.58394c1.11744,-1.09192 2.47422,-2.13501 4.03595,-2.13265c1.76046,0.00295 3.30243,1.42686 3.85701,3.10155c0.55559,1.67585 0.27779,3.52652 -0.31736,5.18709c-1.13097,3.16102 -3.35444,5.83813 -5.92542,7.9908c-2.57099,2.15329 -5.49782,3.83147 -8.40695,5.49787z" fill="#fd9100" stroke="none" stroke-linecap="butt" stroke-linejoin="miter"/><path d="M284.53558,167.23489c1.74799,0.9765 3.78313,1.34444 5.78602,1.36029c2.00081,0.01533 3.98914,-0.30434 5.96497,-0.6263c1.79064,-0.29203 3.80706,-0.53746 5.25746,0.55394c1.50556,1.13133 1.79064,3.4159 1.01549,5.13234c-0.77722,1.71759 -2.3889,2.92305 -4.09422,3.71647c-2.87689,1.33724 -6.15225,1.6932 -9.29758,1.30514c-3.14635,-0.38899 -6.17307,-1.49729 -8.98334,-2.96549z" fill="#e67014" stroke="none" stroke-linecap="butt" stroke-linejoin="miter"/><path d="M284.05906,168.24383c1.95502,1.01946 4.21179,1.31024 6.41445,1.28021c2.20369,-0.03002 4.38972,-0.36429 6.58717,-0.5186c1.14762,-0.08122 2.39619,-0.08591 3.32635,0.5946c1.33803,0.97942 1.42648,3.08382 0.5556,4.49717c-0.87294,1.41335 -2.43988,2.24192 -4.00785,2.78095c-5.36046,1.83978 -11.417,0.94241 -16.4674,-1.63429z" fill="#fd9100" stroke="none" stroke-linecap="butt" stroke-linejoin="miter"/><path d="M253.25544,128.02651c39.63506,3.43825 48.0264,52.0752 7.26378,57.61561c-17.04528,2.31751 -43.39925,-1.18241 -50.30448,-18.44861c-9.13047,-22.83339 19.38246,-41.22017 43.04071,-39.167" fill="#ffa429" stroke="none" stroke-linecap="butt" stroke-linejoin="miter"/><path d="M227.9748,154.12849c0,-0.88538 0.59775,-1.60291 1.33304,-1.60291c0.73592,0 1.33304,0.71753 1.33304,1.60291c0,0.88528 -0.59712,1.6028 -1.33304,1.6028c-0.7353,0 -1.33304,-0.71752 -1.33304,-1.6028" fill="#2c2354" stroke="none" stroke-linecap="butt" stroke-linejoin="miter"/><path d="M269.38375,154.12849c0,-0.88538 0.59722,-1.60291 1.33346,-1.60291c0.73539,0 1.3321,0.71753 1.3321,1.60291c0,0.88528 -0.59671,1.6028 -1.3321,1.6028c-0.73624,0 -1.33346,-0.71752 -1.33346,-1.6028" fill="#2c2354" stroke="none" stroke-linecap="butt" stroke-linejoin="miter"/><path d="M259.85124,161.37002c-6.26296,2.72715 -13.63953,2.76833 -19.93318,0.11187" fill="none" stroke="#2c2354" stroke-linecap="round" stroke-linejoin="round"/><path d="M261.18428,146.6701c0.88221,0.14837 1.05523,1.02009 0.84059,1.53107c-0.21611,0.51036 -0.85162,0.79874 -1.37507,0.62337c-0.52459,-0.17547 -0.86067,-0.78758 -0.72634,-1.32504c0.13245,-0.53799 0.71573,-0.92063 1.26083,-0.8294" fill="#fd9100" stroke="none" stroke-linecap="butt" stroke-linejoin="miter"/><path d="M258.62724,136.80035c0.8822,0.37672 0.99832,1.38393 0.63645,1.98191c-0.3625,0.59814 -1.2188,0.82888 -1.83267,0.49514c-0.61304,-0.33436 -0.88408,-1.18086 -0.58006,-1.8107c0.30465,-0.62927 1.13515,-0.94064 1.77628,-0.66635" fill="#fd9100" stroke="none" stroke-linecap="butt" stroke-linejoin="miter"/><path d="M248.58563,141.50461c0.7506,0.14128 0.93278,0.89414 0.74488,1.36154c-0.18885,0.46678 -0.76402,0.7364 -1.24222,0.5798c-0.47716,-0.15776 -0.78409,-0.71575 -0.65882,-1.20431c0.12527,-0.48804 0.66225,-0.8294 1.15616,-0.73703" fill="#fd9100" stroke="none" stroke-linecap="butt" stroke-linejoin="miter"/><path d="M239.28358,139.50239c0.88742,-0.00939 1.224,0.67217 1.2058,1.18314c-0.01811,0.51099 -0.32609,0.97422 -0.70669,1.3139c-0.46852,0.41788 -1.09582,0.69636 -1.7179,0.61921c-0.62398,-0.07591 -1.20913,-0.57334 -1.26365,-1.20025c-0.05067,-0.57511 0.34179,-1.11715 0.8357,-1.41565c0.49443,-0.29839 1.07012,-0.49389 1.64674,-0.50035" fill="#fd9100" stroke="none" stroke-linecap="butt" stroke-linejoin="miter"/><path d="M244.05817,146.24472c0.68274,0.06245 0.88699,0.75767 0.76401,1.15198c-0.12383,0.39494 -0.50962,0.65872 -0.90843,0.76413c-0.5862,0.1565 -1.35166,-0.07539 -1.48785,-0.66822c-0.0899,-0.39024 0.13859,-0.80635 0.47517,-1.023c0.33712,-0.21603 0.75787,-0.26138 1.15711,-0.22489" fill="#fd9100" stroke="none" stroke-linecap="butt" stroke-linejoin="miter"/><path d="M242.36179,177.62988c0.79273,0.0733 1.10206,0.9592 0.95817,1.48573c-0.14348,0.52609 -0.77505,0.75995 -1.31869,0.73931c-0.44469,-0.01626 -0.90125,-0.16004 -1.20829,-0.48294c-0.30693,-0.32196 -0.42356,-0.84472 -0.19934,-1.22943c0.16398,-0.28026 0.4782,-0.44801 0.7971,-0.50974c0.31838,-0.06235 0.64737,-0.03306 0.97106,-0.00293" fill="#fd9100" stroke="none" stroke-linecap="butt" stroke-linejoin="miter"/><path d="M282.14356,165.32244c1.60231,1.84771 2.23804,4.44662 1.8229,6.84941c-1.35053,2.25036 -3.11827,4.33307 -5.32198,6.1667c-1.32034,0.46803 -2.75056,0.6166 -4.12948,0.36127c-3.29474,-0.60993 -6.05498,-3.45708 -6.56897,-6.77517c-0.51358,-3.31882 1.08197,-7.25686 5.03751,-8.83432c3.1141,-1.24092 6.9636,-0.3032 9.16002,2.23211" fill="#ffef6a" stroke="none" stroke-linecap="butt" stroke-linejoin="miter"/><path d="M227.65454,178.39359c-1.12651,1.1575 -2.61353,1.91934 -4.19222,2.24421c-3.83931,-1.93331 -7.20708,-4.41888 -9.76714,-7.5589c-0.02352,-0.39672 -0.0182,-0.79519 0.02123,-1.19253c0.33306,-3.34176 2.93588,-6.33384 6.19325,-7.12257c3.25717,-0.78822 6.93541,0.6852 8.7532,3.50597c2.30982,3.5848 1.33012,7.71966 -1.00832,10.12381" fill="#ffef6a" stroke="none" stroke-linecap="butt" stroke-linejoin="miter"/><path d="M222.04937,136.34376c1.11746,-0.76227 2.28164,-1.48041 3.4866,-2.15146" fill="none" stroke="#2c2354" stroke-linecap="round" stroke-linejoin="round"/><path d="M232.90628,130.85322c6.52546,-2.34515 13.63287,-3.40941 20.34915,-2.82665c8.60108,0.7458 15.73148,3.62072 21.20608,7.72179" fill="none" stroke="#2c2354" stroke-linecap="round" stroke-linejoin="round"/><path d="M277.24298,138.06408c13.35017,12.34909 14.05873,32.67595 -1.63207,42.4702" fill="none" stroke="#2c2354" stroke-linecap="round" stroke-linejoin="round"/><path d="M272.32378,182.31463c-0.79034,0.36899 -1.6123,0.7144 -2.46767,1.03594" fill="none" stroke="#2c2354" stroke-linecap="round" stroke-linejoin="round"/><path d="M263.65434,185.11268c-1.01029,0.20559 -2.05554,0.38285 -3.13513,0.52944c-17.04528,2.31751 -43.39883,-1.18242 -50.30407,-18.44914c-4.46795,-11.17246 0.07762,-21.28116 8.65696,-28.45075" fill="none" stroke="#2c2354" stroke-linecap="round" stroke-linejoin="round"/><path d="M240.54869,207.87736c2.11911,4.91192 2.02349,13.73718 -0.5116,18.58155c0.67609,0.73452 1.35219,1.46893 2.02828,2.20345c0.11664,0.12646 0.23567,0.25679 0.29924,0.41683c0.06367,0.16046 0.05982,0.35887 -0.05307,0.48866c-0.17687,0.20175 -0.50348,0.14139 -0.75402,0.04264c-0.48714,-0.18975 -0.94661,-0.45279 -1.34012,-0.74264c0.36052,0.37899 0.65457,0.82075 0.86495,1.30034c0.11757,0.26639 0.19457,0.61274 -0.00916,0.8198c-0.12089,0.12312 -0.31266,0.15472 -0.48193,0.11782c-0.16929,-0.03597 -0.31891,-0.12938 -0.46041,-0.22906c-0.40454,-0.28306 -0.76745,-0.62515 -1.1518,-0.9423c0.02913,0.28451 0.15534,0.54809 0.26148,0.81302c0.10612,0.26545 0.19509,0.55289 0.14494,0.83408c-0.05026,0.28223 -0.28218,0.54862 -0.56758,0.54862c-0.29693,0 -0.51689,-0.26586 -0.69179,-0.50744c-0.74112,-1.02768 -1.48225,-2.05539 -2.22388,-3.08309c-0.20507,-0.28411 -0.48767,-0.68457 -0.77119,-1.11392c-0.56799,-0.86473 -0.71719,-1.93507 -0.45801,-2.9389c0.6507,-2.5206 -0.75694,-9.30391 -1.45259,-11.91366" fill="#ffa429" stroke="none" stroke-linecap="butt" stroke-linejoin="miter"/><path d="M240.54869,207.87736c2.11911,4.91192 2.02349,13.73718 -0.5116,18.58155c0.67609,0.73452 1.35219,1.46893 2.02828,2.20345c0.11664,0.12646 0.23567,0.25679 0.29924,0.41683c0.06367,0.16046 0.05982,0.35887 -0.05307,0.48866c-0.17687,0.20175 -0.50348,0.14139 -0.75402,0.04264c-0.48714,-0.18975 -0.94661,-0.45279 -1.34012,-0.74264c0.36052,0.37899 0.65457,0.82075 0.86495,1.30034c0.11757,0.26639 0.19457,0.61274 -0.00916,0.8198c-0.12089,0.12312 -0.31266,0.15472 -0.48193,0.11782c-0.16929,-0.03597 -0.31891,-0.12938 -0.46041,-0.22906c-0.40454,-0.28306 -0.76745,-0.62515 -1.1518,-0.9423c0.02913,0.28451 0.15534,0.54809 0.26148,0.81302c0.10612,0.26545 0.19509,0.55289 0.14494,0.83408c-0.05026,0.28223 -0.28218,0.54862 -0.56758,0.54862c-0.29693,0 -0.51689,-0.26586 -0.69179,-0.50744c-0.74112,-1.02768 -1.48225,-2.05539 -2.22388,-3.08309c-0.20507,-0.28411 -0.48767,-0.68457 -0.77119,-1.11392c-0.56799,-0.86473 -0.71719,-1.93507 -0.45801,-2.9389c0.6507,-2.5206 -0.75694,-9.30391 -1.45259,-11.91366" fill="none" stroke="#2c2354" stroke-linecap="round" stroke-linejoin="round"/></g></g></svg>