<svg version="1.1" xmlns="http://www.w3.org/2000/svg" xmlns:xlink="http://www.w3.org/1999/xlink" width="135.5523" height="101.08593" viewBox="0,0,135.5523,101.08593"><g transform="translate(-172.00001,-129)"><g data-paper-data="{&quot;isPaintingLayer&quot;:true}" fill-rule="nonzero" stroke-width="1" stroke-miterlimit="10" stroke-dasharray="" stroke-dashoffset="0" style="mix-blend-mode: normal"><path d="M232.72929,217.68904c-5.29585,2.92281 -10.9106,5.43354 -16.88004,6.39865c-5.97018,0.965 -12.3609,0.27239 -17.53856,-2.85541c-3.98112,-2.4049 -7.01938,-6.07219 -10.62333,-9.01282c-3.61103,-2.9478 -7.82414,-5.1923 -10.96574,-8.63656c-3.75434,-4.1172 -5.69524,-10.07834 -4.23369,-15.45834c1.46037,-5.38 6.69269,-9.73281 12.2517,-9.40677c4.66189,0.27332 8.62304,3.49448 11.70291,7.00948c3.0806,3.51552 5.69758,7.52354 9.44553,10.3124c5.38439,4.00625 12.88612,4.96354 19.10257,2.43655z" fill="#e67014" stroke="none" stroke-linecap="butt" stroke-linejoin="miter"/><path d="M226.98489,203.15831c-4.24436,1.44666 -8.82989,1.87698 -13.26798,1.24792c-1.01632,-0.04355 -2.19819,0.00239 -3.24094,-0.44469c-0.51638,-0.22155 -1.00269,-0.45135 -1.34813,-0.61698c-1.25073,-0.60217 -2.50137,-1.2049 -3.75263,-1.80656c-0.29424,-0.14177 -0.62386,-0.32896 -0.6814,-0.6501c-0.05462,-0.30823 0.18853,-0.60937 0.48226,-0.71896c0.29372,-0.10823 0.6198,-0.06854 0.92642,-0.00479c0.306,0.06313 0.61502,0.14886 0.92695,0.1249c-0.41702,-0.35324 -0.85464,-0.68022 -1.23825,-1.06178c-0.13391,-0.13353 -0.26501,-0.2776 -0.33607,-0.45375c-0.0722,-0.17521 -0.07637,-0.38916 0.0335,-0.54385c0.18332,-0.2599 0.57163,-0.24313 0.88179,-0.16844c0.55623,0.135 1.08968,0.36719 1.56839,0.68355c-0.3883,-0.36907 -0.76183,-0.81521 -1.06033,-1.30542c-0.15451,-0.25125 -0.28374,-0.5926 -0.09978,-0.82282c0.11747,-0.14697 0.33128,-0.18812 0.51576,-0.15124c0.18447,0.03823 0.34834,0.14114 0.50629,0.24219c0.92289,0.58832 1.84526,1.17708 2.93493,1.99426c5.20876,-0.23844 10.40254,-0.83437 15.53015,-1.78125" fill="#ea8d22" stroke="none" stroke-linecap="butt" stroke-linejoin="miter"/><path d="M255.79228,186.04894c-0.504,6.97552 -1.99624,14.10468 -6.00784,19.83073c-4.4228,6.31251 -11.57191,10.3374 -19.03901,12.22343c-9.40588,2.37625 -19.75609,1.52219 -28.23523,-3.19385c-8.47967,-4.71605 -14.82815,-13.46084 -15.81503,-23.1223c3.8648,4.90135 9.54708,8.59927 15.82804,10.13687c6.28085,1.53708 13.13688,0.84439 18.84028,-2.20489c5.70413,-3.04781 10.15325,-8.48811 11.70957,-14.77103z" fill="#ffa429" stroke="none" stroke-linecap="butt" stroke-linejoin="miter"/><path d="M194.1711,203.88925c6.32789,1.62083 12.8338,2.9699 19.34917,2.4998c6.51444,-0.46865 13.11752,-2.95886 17.37052,-7.92146c1.69501,-1.9774 2.98654,-4.2996 4.87175,-6.09563c1.88438,-1.79552 4.65857,-3.01719 7.09565,-2.10531c1.92444,0.72052 3.21731,2.66209 3.57689,4.68886c0.35813,2.02584 -0.0951,4.11906 -0.83049,6.04104c-2.36445,6.16458 -7.67362,10.99364 -13.84356,13.32677c-6.17129,2.33271 -13.1066,2.28094 -19.44218,0.44666c-6.33662,-1.83531 -12.09475,-5.38053 -18.14775,-10.88073" fill="#ffef6a" stroke="none" stroke-linecap="butt" stroke-linejoin="miter"/><path d="M235.39204,186.78081c-0.19655,2.24844 -0.04973,4.52656 0.43512,6.73c0.15149,0.68884 0.39871,1.44948 1.03225,1.75822c0.53365,0.25895 1.30535,0.18718 1.56828,0.71897c0.19603,0.39687 -0.07887,0.8976 -0.47091,1.10437c-0.39111,0.20625 -0.85682,0.19771 -1.2986,0.18428c0.18977,1.07323 0.62396,2.04979 1.05908,3.02624c0.1338,0.30157 0.26386,0.67115 0.07356,0.94116c-0.16107,0.2302 -0.50016,0.2728 -0.76162,0.17041c-0.26105,-0.10238 -0.46196,-0.31593 -0.64602,-0.5275c-0.61106,-0.69896 -1.15991,-1.45094 -1.63905,-2.24604c0.06836,0.94395 0.35958,1.87834 0.58381,2.82959c0.07793,0.32688 0.13193,0.71655 -0.10134,0.95979c-0.20559,0.21396 -0.56571,0.20917 -0.82572,0.06645c-0.26209,-0.1426 -0.44428,-0.39249 -0.61252,-0.63801c-0.55894,-0.82052 -1.04619,-1.69031 -1.45457,-2.59552c-0.21319,0.8076 -0.19071,1.65677 -0.24044,2.50208c-0.0206,0.36291 -0.09708,0.78843 -0.42556,0.945c-0.27302,0.12875 -0.61397,-0.00625 -0.81041,-0.23406c-0.198,-0.22886 -0.28738,-0.53095 -0.36625,-0.8224c-1.39287,-5.07271 -1.84567,-13.39094 -1.40764,-18.63261" fill="#ffa429" stroke="none" stroke-linecap="butt" stroke-linejoin="miter"/><path d="M235.39204,186.78081c-0.19655,2.24844 -0.04973,4.52656 0.43512,6.73c0.15149,0.68884 0.39871,1.44948 1.03225,1.75822c0.53365,0.25895 1.30535,0.18718 1.56828,0.71897c0.19603,0.39687 -0.07887,0.8976 -0.47091,1.10437c-0.39111,0.20625 -0.85682,0.19771 -1.2986,0.18428c0.18977,1.07323 0.62396,2.04979 1.05908,3.02624c0.1338,0.30157 0.26386,0.67115 0.07356,0.94116c-0.16107,0.2302 -0.50016,0.2728 -0.76162,0.17041c-0.26105,-0.10238 -0.46196,-0.31593 -0.64602,-0.5275c-0.61106,-0.69896 -1.15991,-1.45094 -1.63905,-2.24604c0.06836,0.94395 0.35958,1.87834 0.58381,2.82959c0.07793,0.32688 0.13193,0.71655 -0.10134,0.95979c-0.20559,0.21396 -0.56571,0.20917 -0.82572,0.06645c-0.26209,-0.1426 -0.44428,-0.39249 -0.61252,-0.63801c-0.55894,-0.82052 -1.04619,-1.69031 -1.45457,-2.59552c-0.21319,0.8076 -0.19071,1.65677 -0.24044,2.50208c-0.0206,0.36291 -0.09708,0.78843 -0.42556,0.945c-0.27302,0.12875 -0.61397,-0.00625 -0.81041,-0.23406c-0.198,-0.22886 -0.28738,-0.53095 -0.36625,-0.8224c-1.39287,-5.07271 -1.84567,-13.39094 -1.40764,-18.63261" fill="none" stroke="#2c2354" stroke-linecap="round" stroke-linejoin="round"/><path d="M254.8465,185.52571c1.34646,5.08469 2.35051,13.35551 1.86523,18.59292c-0.02871,0.30104 -0.06263,0.6127 -0.2185,0.87312c-0.1545,0.25939 -0.4657,0.45136 -0.75693,0.3724c-0.35043,-0.09573 -0.50015,-0.50219 -0.58328,-0.85636c-0.19654,-0.82333 -0.32326,-1.66302 -0.67515,-2.42124c-0.24284,0.96312 -0.5709,1.90375 -0.97877,2.8099c-0.12142,0.27146 -0.25866,0.54906 -0.49057,0.73531c-0.2314,0.18667 -0.58527,0.25417 -0.8252,0.07896c-0.2726,-0.19771 -0.28695,-0.5926 -0.2673,-0.92812c0.05494,-0.97511 0.17834,-1.94542 0.08127,-2.88709c-0.33326,0.86604 -0.74205,1.70271 -1.22212,2.49833c-0.14484,0.24031 -0.30361,0.4849 -0.54417,0.63136c-0.24003,0.14656 -0.58182,0.16427 -0.77982,-0.03396c-0.23379,-0.23353 -0.17168,-0.61989 -0.09177,-0.93968c0.25918,-1.03824 0.51587,-2.07563 0.51587,-3.16458c-0.43408,0.08906 -0.89022,0.17896 -1.31203,0.04448c-0.42171,-0.13449 -0.77931,-0.57917 -0.65591,-1.00573c0.1668,-0.56918 0.94047,-0.63229 1.42002,-0.98126c0.56851,-0.41365 0.67994,-1.20687 0.7096,-1.91093c0.0927,-2.25521 -0.46623,-4.65625 -1.05295,-6.83573" fill="#ffa429" stroke="none" stroke-linecap="butt" stroke-linejoin="miter"/><path d="M254.8465,185.52571c1.34646,5.08469 2.35051,13.35551 1.86523,18.59292c-0.02871,0.30104 -0.06263,0.6127 -0.2185,0.87312c-0.1545,0.25939 -0.4657,0.45136 -0.75693,0.3724c-0.35043,-0.09573 -0.50015,-0.50219 -0.58328,-0.85636c-0.19654,-0.82333 -0.32326,-1.66302 -0.67515,-2.42124c-0.24284,0.96312 -0.5709,1.90375 -0.97877,2.8099c-0.12142,0.27146 -0.25866,0.54906 -0.49057,0.73531c-0.2314,0.18667 -0.58527,0.25417 -0.8252,0.07896c-0.2726,-0.19771 -0.28695,-0.5926 -0.2673,-0.92812c0.05494,-0.97511 0.17834,-1.94542 0.08127,-2.88709c-0.33326,0.86604 -0.74205,1.70271 -1.22212,2.49833c-0.14484,0.24031 -0.30361,0.4849 -0.54417,0.63136c-0.24003,0.14656 -0.58182,0.16427 -0.77982,-0.03396c-0.23379,-0.23353 -0.17168,-0.61989 -0.09177,-0.93968c0.25918,-1.03824 0.51587,-2.07563 0.51587,-3.16458c-0.43408,0.08906 -0.89022,0.17896 -1.31203,0.04448c-0.42171,-0.13449 -0.77931,-0.57917 -0.65591,-1.00573c0.1668,-0.56918 0.94047,-0.63229 1.42002,-0.98126c0.56851,-0.41365 0.67994,-1.20687 0.7096,-1.91093c0.0927,-2.25521 -0.46623,-4.65625 -1.05295,-6.83573" fill="none" stroke="#2c2354" stroke-linecap="round" stroke-linejoin="round"/><path d="M241.25453,208.76383c-1.17292,5.67864 -5.54931,12.93188 -10.11216,15.93136c0.2572,1.06406 0.51544,2.1277 0.77358,3.19187c0.04443,0.18333 0.08937,0.37147 0.06503,0.55865c-0.02435,0.1872 -0.13298,0.37531 -0.30933,0.43938c-0.27832,0.10011 -0.558,-0.13302 -0.74642,-0.35989c-0.36718,-0.44188 -0.66747,-0.93927 -0.89075,-1.42656c0.14442,0.55531 0.19176,1.13553 0.13911,1.70708c-0.02965,0.31729 -0.13911,0.69021 -0.44459,0.78021c-0.18125,0.05364 -0.38206,-0.01865 -0.5246,-0.14406c-0.14245,-0.12396 -0.23713,-0.29438 -0.31984,-0.46438c-0.23712,-0.48729 -0.40453,-1.00761 -0.60389,-1.51699c-0.12235,0.28823 -0.1415,0.60802 -0.18125,0.91865c-0.03871,0.31114 -0.10613,0.63333 -0.30361,0.87645c-0.19842,0.24229 -0.56174,0.37584 -0.83529,0.22406c-0.28498,-0.15895 -0.3548,-0.53187 -0.39402,-0.85635c-0.16449,-1.37917 -0.33035,-2.75822 -0.49484,-4.13781c-0.0464,-0.38198 -0.10519,-0.91574 -0.14722,-1.47771c-0.08615,-1.13261 0.33898,-2.23647 1.1212,-3.05979c1.49993,-1.57969 2.70811,-3.23167 3.5153,-5.20439c0,0 2.36341,-0.74051 4.89465,-2.18614c3.02472,-1.7276 5.79892,-3.79365 5.79892,-3.79365" fill="#ffa429" stroke="none" stroke-linecap="butt" stroke-linejoin="miter"/><path d="M241.25453,208.76383c-1.17292,5.67864 -5.54931,12.93188 -10.11216,15.93136c0.2572,1.06406 0.51544,2.1277 0.77358,3.19187c0.04443,0.18333 0.08937,0.37147 0.06503,0.55865c-0.02435,0.1872 -0.13298,0.37531 -0.30933,0.43938c-0.27832,0.10011 -0.558,-0.13302 -0.74642,-0.35989c-0.36718,-0.44188 -0.66747,-0.93927 -0.89075,-1.42656c0.14442,0.55531 0.19176,1.13553 0.13911,1.70708c-0.02965,0.31729 -0.13911,0.69021 -0.44459,0.78021c-0.18125,0.05364 -0.38206,-0.01865 -0.5246,-0.14406c-0.14245,-0.12396 -0.23713,-0.29438 -0.31984,-0.46438c-0.23712,-0.48729 -0.40453,-1.00761 -0.60389,-1.51699c-0.12235,0.28823 -0.1415,0.60802 -0.18125,0.91865c-0.03871,0.31114 -0.10613,0.63333 -0.30361,0.87645c-0.19842,0.24229 -0.56174,0.37584 -0.83529,0.22406c-0.28498,-0.15895 -0.3548,-0.53187 -0.39402,-0.85635c-0.16449,-1.37917 -0.33035,-2.75822 -0.49484,-4.13781c-0.0464,-0.38198 -0.10519,-0.91574 -0.14722,-1.47771c-0.08615,-1.13261 0.33898,-2.23647 1.1212,-3.05979c1.49993,-1.57969 2.70811,-3.23167 3.5153,-5.20439" fill="none" stroke="#2c2354" stroke-linecap="round" stroke-linejoin="round"/><path d="M218.0416,177.81206c-2.53009,1.91333 -5.3304,3.50886 -8.36865,4.41407c-3.03888,0.90615 -6.32736,1.09853 -9.38486,0.2575c-1.81353,-0.49781 -3.60229,-1.4174 -4.65316,-2.98031c-1.04982,-1.56198 -1.14554,-3.86115 0.15097,-5.22563c1.25063,-1.31563 3.28026,-1.40969 5.09368,-1.41969c2.00196,-0.01 4.01515,-0.02531 5.98661,-0.37344c1.97199,-0.34823 3.91818,-1.0475 5.48022,-2.3002z" fill="#e67014" stroke="none" stroke-linecap="butt" stroke-linejoin="miter"/><path d="M217.68368,177.39894c-4.55327,3.37718 -10.37778,5.26854 -15.96902,4.3451c-1.63602,-0.26999 -3.31782,-0.82666 -4.41229,-2.07458c-1.09321,-1.24708 -1.35405,-3.3349 -0.19612,-4.52292c0.8048,-0.82396 2.0366,-1.02802 3.18215,-1.13854c2.19225,-0.2123 4.40396,-0.24645 6.58051,-0.58229c2.17758,-0.33635 4.35579,-0.9974 6.11407,-2.32657z" fill="#fd9100" stroke="none" stroke-linecap="butt" stroke-linejoin="miter"/><path d="M212.04052,167.92144c-3.127,0.54281 -6.30155,0.94802 -9.4708,0.77219c-3.16987,-0.17646 -6.35432,-0.95866 -9.04485,-2.64595c-2.68981,-1.68615 -4.84866,-4.33739 -5.57189,-7.43219c-0.38653,-1.6525 -0.29247,-3.5727 0.87129,-4.80718c1.1572,-1.22626 3.07811,-1.43449 4.70945,-1.01334c1.63134,0.42104 3.0705,1.36272 4.5439,2.17959c4.08736,2.26427 8.92852,3.65687 13.45172,2.48416z" fill="#e67014" stroke="none" stroke-linecap="butt" stroke-linejoin="miter"/><path d="M211.5282,167.0881c-3.75846,0.71157 -7.68257,0.84563 -11.37933,-0.13834c-3.69676,-0.9851 -7.15568,-3.16697 -9.22224,-6.38927c-0.62157,-0.96865 -1.12318,-2.05907 -1.14898,-3.21052c-0.02477,-1.15042 0.51097,-2.36542 1.53135,-2.89532c1.25896,-0.65583 2.78917,-0.12948 4.0757,0.47219c2.53832,1.18687 4.95916,2.65073 7.6062,3.56927c2.64818,0.91876 5.63879,1.25105 8.21352,0.14354z" fill="#fd9100" stroke="none" stroke-linecap="butt" stroke-linejoin="miter"/><path d="M209.44801,156.75227c-6.5493,-2.61125 -12.64059,-7.05688 -15.78746,-13.37145c-0.98272,-1.97084 -1.67129,-4.18214 -1.35458,-6.36173c0.31714,-2.17901 1.84224,-4.28504 3.99215,-4.74967c2.18352,-0.47286 4.3636,0.77395 6.08775,2.19781c2.49419,2.05779 4.57325,4.57203 6.94352,6.77222c2.37142,2.19896 5.16184,4.13448 8.3546,4.64323z" fill="#e67014" stroke="none" stroke-linecap="butt" stroke-linejoin="miter"/><path d="M209.68846,155.73539c-2.93431,-1.62021 -5.88673,-3.25229 -8.48976,-5.36417c-2.60417,-2.11136 -4.86811,-4.75145 -6.04644,-7.89145c-0.61981,-1.65146 -0.92476,-3.49523 -0.39714,-5.17724c0.52866,-1.68198 2.0495,-3.1276 3.81007,-3.15761c1.56205,-0.02646 2.93368,0.99512 4.06811,2.06903c2.14523,2.03016 3.92577,4.41676 6.03302,6.48635c2.10652,2.06906 4.65888,3.86396 7.58143,4.28093z" fill="#fd9100" stroke="none" stroke-linecap="butt" stroke-linejoin="miter"/><path d="M283.87155,156.53154c4.603,0.80218 9.31525,-0.97688 13.20658,-3.5652c1.40359,-0.93323 2.76139,-1.98782 4.3533,-2.53948c1.59296,-0.55167 3.52301,-0.49865 4.77573,0.6299c1.26103,1.13562 1.50868,3.04177 1.25688,4.7202c-0.47134,3.14302 -2.40867,5.96009 -4.95572,7.85853c-2.54395,1.89907 -5.65492,2.93647 -8.79919,3.36876c-3.14533,0.43115 -6.34163,0.28459 -9.50254,-0.00354z" fill="#e67014" stroke="none" stroke-linecap="butt" stroke-linejoin="miter"/><path d="M284.29086,157.68206c2.65526,0.89562 5.61017,0.32219 8.17491,-0.8076c2.56473,-1.12969 4.85896,-2.78469 7.29469,-4.17324c1.2319,-0.70344 2.71457,-1.35156 4.02243,-0.80042c1.06023,0.44636 1.69179,1.61375 1.76047,2.76355c0.06659,1.14916 -0.34544,2.27656 -0.88543,3.29229c-1.8021,3.37938 -5.07226,5.83302 -8.67851,7.11448c-3.6052,1.27917 -7.52567,1.46208 -11.33065,1.05739z" fill="#fd9100" stroke="none" stroke-linecap="butt" stroke-linejoin="miter"/><path d="M275.75116,143.52508c3.18444,-0.55636 5.94479,-2.53489 8.28271,-4.76967c2.33688,-2.23664 4.37619,-4.78145 6.83895,-6.87751c1.70429,-1.44912 3.86428,-2.72944 6.05445,-2.29072c2.15689,0.43285 3.71237,2.51481 4.063,4.68909c0.35064,2.17428 -0.30484,4.3956 -1.25687,6.38111c-3.05063,6.36229 -9.07387,10.90021 -15.58197,13.61083z" fill="#e67014" stroke="none" stroke-linecap="butt" stroke-linejoin="miter"/><path d="M277.20427,144.60247c2.91433,-0.46229 5.44058,-2.29489 7.51526,-4.39624c2.07573,-2.10193 3.81955,-4.5144 5.93273,-6.57814c1.11744,-1.09097 2.47421,-2.13311 4.03595,-2.13076c1.7615,0.00295 3.30347,1.4256 3.85698,3.09881c0.55561,1.67437 0.27781,3.52342 -0.31733,5.18251c-1.13097,3.15821 -3.35445,5.83299 -5.92544,7.98372c-2.57097,2.15135 -5.4978,3.82812 -8.40693,5.49312z" fill="#fd9100" stroke="none" stroke-linecap="butt" stroke-linejoin="miter"/><path d="M284.31271,168.83029c1.74798,0.97562 3.78312,1.34323 5.78601,1.35906c2.00081,0.01532 3.98913,-0.30407 5.96498,-0.62573c1.79062,-0.29176 3.80704,-0.53698 5.25746,0.55344c1.50554,1.13031 1.79062,3.41281 1.01549,5.12781c-0.77618,1.71615 -2.38891,2.92052 -4.09423,3.71322c-2.87687,1.33605 -6.15226,1.69167 -9.29757,1.30396c-3.14636,-0.38875 -6.17411,-1.49594 -8.98336,-2.96291z" fill="#e67014" stroke="none" stroke-linecap="butt" stroke-linejoin="miter"/><path d="M283.83617,169.83831c1.95503,1.01854 4.21179,1.30907 6.41445,1.27917c2.20371,-0.03 4.3897,-0.36407 6.58717,-0.51812c1.14763,-0.08125 2.39619,-0.08593 3.32637,0.59396c1.33908,0.97864 1.4275,3.08114 0.5556,4.49323c-0.87191,1.41208 -2.43884,2.24 -4.00786,2.77844c-5.36046,1.83823 -11.41699,0.94167 -16.4674,-1.63281z" fill="#fd9100" stroke="none" stroke-linecap="butt" stroke-linejoin="miter"/><path d="M253.03194,129.65654c39.63568,3.4352 48.02805,52.02916 7.26389,57.56469c-17.04558,2.31542 -43.40009,-1.18135 -50.30543,-18.43228c-9.13058,-22.81323 19.38278,-41.18377 43.04154,-39.13241" fill="#ffa429" stroke="none" stroke-linecap="butt" stroke-linejoin="miter"/><path d="M227.75088,155.73539c0,-0.88448 0.59765,-1.60146 1.33304,-1.60146c0.73592,0 1.33304,0.71698 1.33304,1.60146c0,0.88458 -0.59713,1.60146 -1.33304,1.60146c-0.7354,0 -1.33304,-0.71688 -1.33304,-1.60146" fill="#2c2354" stroke="none" stroke-linecap="butt" stroke-linejoin="miter"/><path d="M269.16056,155.73539c0,-0.88448 0.59712,-1.60146 1.33345,-1.60146c0.73541,0 1.33211,0.71698 1.33211,1.60146c0,0.88458 -0.5967,1.60146 -1.33211,1.60146c-0.73633,0 -1.33345,-0.71688 -1.33345,-1.60146" fill="#2c2354" stroke="none" stroke-linecap="butt" stroke-linejoin="miter"/><path d="M260.96099,148.28363c0.88209,0.14823 1.05522,1.01926 0.84047,1.52978c-0.21609,0.50991 -0.85151,0.79802 -1.37507,0.62282c-0.5245,-0.17532 -0.86067,-0.78698 -0.72636,-1.32386c0.13246,-0.5376 0.71585,-0.91989 1.26095,-0.82874" fill="#fd9100" stroke="none" stroke-linecap="butt" stroke-linejoin="miter"/><path d="M258.40385,138.42263c0.8822,0.37638 0.99831,1.3827 0.63644,1.98016c-0.3625,0.5976 -1.2188,0.82813 -1.83278,0.49468c-0.61294,-0.33406 -0.88408,-1.1798 -0.57995,-1.80909c0.30455,-0.62871 1.13514,-0.93981 1.77629,-0.66576" fill="#fd9100" stroke="none" stroke-linecap="butt" stroke-linejoin="miter"/><path d="M248.36203,143.12279c0.7507,0.14104 0.93287,0.89333 0.74487,1.36021c-0.18884,0.46646 -0.76402,0.73583 -1.24212,0.57937c-0.47726,-0.15761 -0.78419,-0.71521 -0.65892,-1.20333c0.12527,-0.4875 0.66226,-0.82865 1.15617,-0.73625" fill="#fd9100" stroke="none" stroke-linecap="butt" stroke-linejoin="miter"/><path d="M239.05977,141.12227c0.88752,-0.00938 1.22412,0.67166 1.20591,1.18209c-0.0181,0.51052 -0.32609,0.97343 -0.70669,1.3127c-0.46852,0.41761 -1.09592,0.69573 -1.71791,0.61875c-0.62397,-0.07584 -1.20923,-0.57281 -1.26374,-1.19916c-0.05068,-0.57459 0.34189,-1.11625 0.8358,-1.41448c0.49432,-0.29812 1.07002,-0.49344 1.64663,-0.4999" fill="#fd9100" stroke="none" stroke-linecap="butt" stroke-linejoin="miter"/><path d="M243.83456,147.85872c0.68275,0.0623 0.88689,0.75688 0.764,1.15084c-0.12381,0.39469 -0.50972,0.65812 -0.90842,0.76343c-0.5862,0.15645 -1.35177,-0.07531 -1.48796,-0.6675c-0.0899,-0.39 0.13859,-0.80573 0.47528,-1.02219c0.33701,-0.21583 0.75778,-0.26115 1.1571,-0.22459" fill="#fd9100" stroke="none" stroke-linecap="butt" stroke-linejoin="miter"/><path d="M242.13808,179.21612c0.79273,0.07323 1.10206,0.95834 0.95816,1.48438c-0.14337,0.52562 -0.77503,0.75926 -1.31867,0.73864c-0.4447,-0.01625 -0.90125,-0.15989 -1.20829,-0.4825c-0.30694,-0.32166 -0.42358,-0.84396 -0.19936,-1.22834c0.16398,-0.2801 0.4781,-0.4476 0.79711,-0.50937c0.31839,-0.06219 0.64737,-0.03303 0.97106,-0.00281" fill="#fd9100" stroke="none" stroke-linecap="butt" stroke-linejoin="miter"/><path d="M281.92069,166.91946c1.6023,1.84615 2.23802,4.44271 1.82289,6.84333c-1.35157,2.24844 -3.11827,4.32937 -5.32196,6.16125c-1.32035,0.4677 -2.75078,0.61614 -4.1297,0.36093c-3.29483,-0.60937 -6.05518,-3.45396 -6.56917,-6.76916c-0.51346,-3.31573 1.08208,-7.25031 5.03771,-8.82646c3.1141,-1.2398 6.96383,-0.30292 9.16024,2.2301" fill="#ffef6a" stroke="none" stroke-linecap="butt" stroke-linejoin="miter"/><path d="M227.43052,179.97915c-1.12651,1.15645 -2.61342,1.91761 -4.19232,2.24219c-3.83931,-1.93157 -7.20708,-4.415 -9.76714,-7.55219c-0.02351,-0.39635 -0.0182,-0.79459 0.02113,-1.19156c0.33306,-3.33875 2.93598,-6.32814 6.19335,-7.11625c3.25717,-0.78751 6.93551,0.68459 8.7534,3.50292c2.30993,3.58156 1.33023,7.71281 -1.00842,10.11489" fill="#ffef6a" stroke="none" stroke-linecap="butt" stroke-linejoin="miter"/><path d="M221.82534,137.96643c1.11736,-0.76159 2.28164,-1.47911 3.4866,-2.14956" fill="none" stroke="#2c2354" stroke-linecap="round" stroke-linejoin="round"/><path d="M232.68246,132.48076c6.52558,-2.34307 13.63309,-3.40641 20.34948,-2.82416c8.60129,0.74515 15.73179,3.61752 21.20638,7.71495" fill="none" stroke="#2c2354" stroke-linecap="round" stroke-linejoin="round"/><path d="M277.0201,139.68522c13.35017,12.3382 14.05874,32.64715 -1.63226,42.43267" fill="none" stroke="#2c2354" stroke-linecap="round" stroke-linejoin="round"/><path d="M272.10059,183.89675c-0.79035,0.36854 -1.6123,0.71374 -2.46767,1.03489" fill="none" stroke="#2c2354" stroke-linecap="round" stroke-linejoin="round"/><path d="M263.43105,186.69227c-1.0104,0.20542 -2.05553,0.3825 -3.13522,0.52896c-17.04558,2.31542 -43.39957,-1.18136 -50.30491,-18.43281c-4.46805,-11.1626 0.07751,-21.2624 8.65706,-28.42563" fill="none" stroke="#2c2354" stroke-linecap="round" stroke-linejoin="round"/><path d="M263.14247,160.67222c-0.9307,6.87524 -7.07266,10.99989 -13.35787,10.8913c-6.28387,-0.10816 -12.28083,-4.44192 -14.35569,-10.37419c9.28469,-1.87355 18.62199,-1.96898 27.71357,-0.51711" fill="#2c2354" stroke="none" stroke-linecap="round" stroke-linejoin="round"/><path d="M249.78482,171.56397c-1.62144,-0.02833 -3.22286,-0.34267 -4.74345,-0.88854c0.53446,-2.48226 2.64748,-4.16971 4.92901,-4.23918c2.44076,-0.07448 4.80345,1.70982 5.43397,4.06233c-1.76153,0.72728 -3.68278,1.09825 -5.61954,1.06539" fill="#e64081" stroke="none" stroke-linecap="round" stroke-linejoin="round"/></g></g></svg>