<?xml version="1.0" standalone="no"?><!DOCTYPE svg PUBLIC "-//W3C//DTD SVG 1.1//EN" "http://www.w3.org/Graphics/SVG/1.1/DTD/svg11.dtd"><svg class="icon" width="20px" height="20.00px" viewBox="0 0 1024 1024" version="1.1" xmlns="http://www.w3.org/2000/svg"><path d="M426.666667 554.666667a42.666667 42.666667 0 1 0 42.666666 42.666666 42.666667 42.666667 0 0 0-42.666666-42.666666z m0-170.666667a42.666667 42.666667 0 1 0 42.666666 42.666667 42.666667 42.666667 0 0 0-42.666666-42.666667z m170.666666 0a42.666667 42.666667 0 1 0 42.666667 42.666667 42.666667 42.666667 0 0 0-42.666667-42.666667z m298.666667 170.666667a42.666667 42.666667 0 0 0 0-85.333334h-85.333333V384h85.333333a42.666667 42.666667 0 0 0 0-85.333333h-93.013333A128 128 0 0 0 725.333333 221.013333V128a42.666667 42.666667 0 0 0-85.333333 0v85.333333h-85.333333V128a42.666667 42.666667 0 0 0-85.333334 0v85.333333H384V128a42.666667 42.666667 0 0 0-85.333333 0v93.013333A128 128 0 0 0 221.013333 298.666667H128a42.666667 42.666667 0 0 0 0 85.333333h85.333333v85.333333H128a42.666667 42.666667 0 0 0 0 85.333334h85.333333v85.333333H128a42.666667 42.666667 0 0 0 0 85.333333h93.013333A128 128 0 0 0 298.666667 802.986667V896a42.666667 42.666667 0 0 0 85.333333 0v-85.333333h85.333333v85.333333a42.666667 42.666667 0 0 0 85.333334 0v-85.333333h85.333333v85.333333a42.666667 42.666667 0 0 0 85.333333 0v-93.013333A128 128 0 0 0 802.986667 725.333333H896a42.666667 42.666667 0 0 0 0-85.333333h-85.333333v-85.333333z m-170.666667 128a42.666667 42.666667 0 0 1-42.666666 42.666666H341.333333a42.666667 42.666667 0 0 1-42.666666-42.666666V341.333333a42.666667 42.666667 0 0 1 42.666666-42.666666h341.333334a42.666667 42.666667 0 0 1 42.666666 42.666666z m-128-128a42.666667 42.666667 0 1 0 42.666667 42.666666 42.666667 42.666667 0 0 0-42.666667-42.666666z" fill="#575E75" /></svg>
